<?xml version="1.0" standalone="no"?>
<!DOCTYPE svg PUBLIC "-//W3C//DTD SVG 20010904//EN"
 "http://www.w3.org/TR/2001/REC-SVG-20010904/DTD/svg10.dtd">
<svg version="1.0" xmlns="http://www.w3.org/2000/svg"
 width="512.000000pt" height="512.000000pt" viewBox="0 0 512.000000 512.000000"
 preserveAspectRatio="xMidYMid meet">

<g transform="translate(0.000000,512.000000) scale(0.100000,-0.100000)"
fill="#555" stroke="none">
<path d="M2010 5114 c-136 -11 -259 -29 -370 -54 -795 -181 -1390 -748 -1531
-1459 -40 -201 -35 -479 12 -715 71 -355 242 -671 501 -927 l98 -97 2 -449 3
-450 448 260 449 259 87 -11 c151 -19 451 -33 566 -27 637 37 1169 331 1497
826 273 412 372 939 262 1400 -167 704 -833 1300 -1594 1426 -85 14 -346 25
-430 18z m430 -344 c652 -132 1174 -636 1297 -1252 23 -114 23 -381 0 -503
-60 -329 -202 -603 -423 -816 -279 -268 -625 -410 -1064 -435 -122 -6 -432 8
-578 27 l-88 12 -272 -182 -272 -181 0 280 0 280 -143 143 c-166 165 -252 280
-336 452 -112 226 -155 410 -155 665 -1 173 10 260 49 395 174 612 766 1060
1500 1135 140 14 364 5 485 -20z"/>
<path d="M1025 3496 c-191 -90 -191 -342 0 -432 29 -14 68 -24 95 -24 54 0
134 36 172 76 68 73 85 173 44 259 -59 125 -193 177 -311 121z"/>
<path d="M1985 3496 c-191 -90 -191 -342 0 -432 29 -14 68 -24 95 -24 54 0
134 36 172 76 68 73 85 173 44 259 -59 125 -193 177 -311 121z"/>
<path d="M2945 3496 c-60 -28 -97 -66 -124 -126 -37 -82 -18 -184 47 -254 38
-40 118 -76 172 -76 54 0 134 36 172 76 68 73 85 173 44 259 -59 125 -193 177
-311 121z"/>
<path d="M4397 3570 c3 -44 0 -141 -7 -215 l-12 -135 40 -53 c109 -143 177
-270 232 -436 162 -486 32 -1002 -350 -1391 -92 -94 -236 -208 -332 -264 l-48
-28 0 -284 0 -284 -271 181 -272 181 -106 -17 c-220 -34 -471 -30 -646 10
-170 40 -355 128 -545 259 l-45 31 -227 0 -227 0 42 -44 c122 -125 346 -288
523 -378 276 -142 606 -201 961 -174 93 7 184 15 203 17 32 5 76 -20 480 -269
l445 -274 5 454 5 454 57 42 c320 239 543 541 656 887 60 182 75 285 76 495 0
214 -11 295 -70 485 -74 236 -195 445 -370 640 -66 73 -187 190 -197 190 -4 0
-4 -36 0 -80z"/>
</g>
</svg>
