<svg width="22" height="23" viewBox="0 0 22 23" fill="none" xmlns="http://www.w3.org/2000/svg">
<path fill-rule="evenodd" clip-rule="evenodd" d="M5.33209 21.2249C7.04123 22.3197 9.01581 22.8984 11.0425 22.8984C16.9781 22.8984 21.8072 17.9637 21.8072 11.8984C21.8072 5.83313 16.9781 0.898438 11.0425 0.898438C5.10695 0.898438 0.277832 5.83313 0.277832 11.8984C0.277832 14.033 0.876594 16.1027 2.0093 17.8836C2.07982 17.9951 2.09995 18.1325 2.06405 18.26C1.75481 19.3602 1.22219 21.3386 0.925652 22.4446L4.96197 21.1752C5.00489 21.1618 5.04958 21.1551 5.09381 21.1551C5.17704 21.1551 5.25982 21.1788 5.33209 21.2249ZM14.8365 13.0512C15.1992 13.2935 15.6963 13.6254 16.2798 13.9566C16.3968 14.0229 16.4601 14.1573 16.4382 14.292C16.1381 16.1331 15.0726 17.0612 13.2675 17.0612C12.9612 17.0612 12.6343 17.0347 12.2857 16.9814C9.21728 16.5111 6.81043 13.6156 5.87281 11.1246C5.01856 8.85471 6.81598 6.98204 6.89285 6.90349C6.937 6.85837 6.99319 6.82776 7.05432 6.81515C7.68907 6.68612 8.104 6.71546 8.28831 6.90349C8.472 7.09119 9.48742 8.94841 9.48742 9.39324C9.48742 9.82481 9.28088 10.204 8.70757 10.8069C8.7903 11.3028 9.35219 12.0313 10.2457 12.7922C11.1209 13.537 12.0014 14.0484 12.1894 14.0784C12.3521 14.045 12.9085 13.4203 13.3342 12.7676C13.3456 12.7499 13.3589 12.7335 13.3737 12.7184C13.492 12.5966 13.8028 12.4486 14.2128 12.6578C14.3595 12.7329 14.5595 12.8663 14.8365 13.0512Z" fill="#555555"/>
</svg>
