<svg viewBox="0 0 19 19" fill="none" xmlns="http://www.w3.org/2000/svg">
<path d="M18.2393 12.9318L14.3045 11.2443C14.1364 11.1726 13.9495 11.1575 13.7721 11.2013C13.5947 11.245 13.4363 11.3453 13.3207 11.4869L11.5782 13.6174C8.84333 12.3271 6.64243 10.1247 5.35299 7.38795L7.48203 5.64417C7.62385 5.52874 7.72423 5.37022 7.76797 5.1926C7.81171 5.01498 7.79643 4.82793 7.72445 4.65978L6.03807 0.72221C5.95906 0.540944 5.81933 0.392946 5.64295 0.303737C5.46658 0.214528 5.26463 0.189698 5.07192 0.233529L1.41812 1.07729C1.23232 1.12023 1.06656 1.22491 0.947878 1.37426C0.829196 1.52361 0.764606 1.7088 0.764648 1.89961C0.764648 10.9174 8.06875 18.2124 17.0662 18.2124C17.257 18.2125 17.4421 18.1479 17.5915 18.0292C17.7408 17.9104 17.8454 17.7445 17.8883 17.5585L18.7315 13.9022C18.7751 13.7084 18.7497 13.5055 18.6599 13.3284C18.57 13.1513 18.4213 13.0111 18.2393 12.9318Z"/>
</svg>
