<svg width="12" height="12" viewBox="0 0 12 12" fill="none" xmlns="http://www.w3.org/2000/svg">
<path fill-rule="evenodd" clip-rule="evenodd" d="M6.38581 0.720573C6.38586 0.444431 6.16204 0.220615 5.8859 0.220667C5.60976 0.220719 5.38586 0.444619 5.38581 0.720762L5.38499 5.05492L1.02203 5.05574C0.745891 5.05579 0.521991 5.27969 0.521939 5.55583C0.521886 5.83198 0.745702 6.05579 1.02184 6.05574L5.3848 6.05492L5.38392 10.6632C5.38387 10.9393 5.60769 11.1632 5.88383 11.1631C6.15997 11.163 6.38387 10.9391 6.38392 10.663L6.3848 6.05473L10.9633 6.05386C11.2395 6.05381 11.4634 5.82991 11.4634 5.55377C11.4635 5.27763 11.2397 5.05381 10.9635 5.05386L6.38499 5.05473L6.38581 0.720573Z" fill="white"/>
</svg>
