<svg width="87" height="73" viewBox="0 0 87 73" fill="none" xmlns="http://www.w3.org/2000/svg">
<path fill-rule="evenodd" clip-rule="evenodd" d="M38.0581 41.5973H38.0583L38.1657 5.27461C38.1739 2.5132 35.9419 0.266249 33.1805 0.255908L5.66585 0.152868C2.90444 0.142527 0.659265 2.37271 0.651101 5.13412L0.558494 36.4568C0.55033 39.2183 2.78227 41.4652 5.54367 41.4755L20.6651 41.5322C20.6673 41.5551 20.8851 43.9224 18.7478 47.4191C16.5999 50.9328 6.08662 56.4275 6.08662 56.4275L13.1652 72.0471C13.1652 72.0471 28.6615 64.9784 33.3503 56.5296C38.0251 48.1059 38.058 41.6356 38.0581 41.5973Z" fill="#9D9D9D"/>
<path fill-rule="evenodd" clip-rule="evenodd" d="M53.6471 41.3564L86.1617 41.4782L86.2691 5.15547C86.2773 2.39406 84.0453 0.147108 81.2839 0.136767L53.7692 0.0337272C51.0078 0.023386 48.7627 2.25357 48.7545 5.01498L48.6619 36.3377C48.6537 39.0991 50.8857 41.3461 53.6471 41.3564ZM54.19 56.4267L61.2686 72.0463C61.2686 72.0463 76.7649 64.9776 81.4536 56.5288C86.1424 48.08 86.1615 41.5963 86.1615 41.5963L68.7685 41.5312C68.7685 41.5312 68.999 43.9046 66.8511 47.4183C64.7033 50.932 54.19 56.4267 54.19 56.4267Z" fill="#9D9D9D"/>
</svg>
