<svg width="26" height="26" viewBox="0 0 26 26" fill="none" xmlns="http://www.w3.org/2000/svg">
<path d="M13.29 25.1602C10.9366 25.1602 8.64374 24.5025 6.65908 23.2584C6.57516 23.206 6.47902 23.179 6.38238 23.179C6.33102 23.179 6.27913 23.1867 6.22928 23.2019L1.54229 24.6444C1.88663 23.3876 2.50512 21.1395 2.86421 19.8893C2.9059 19.7443 2.88251 19.5882 2.80062 19.4615C1.48533 17.4377 0.790039 15.0858 0.790039 12.6602C0.790039 5.76776 6.39764 0.160156 13.29 0.160156C20.1824 0.160156 25.79 5.76776 25.79 12.6602C25.79 19.5526 20.1824 25.1602 13.29 25.1602Z" fill="#36B725"/>
<path d="M19.3714 14.9988C18.6939 14.6224 18.1167 14.2453 17.6955 13.9699C17.3739 13.7599 17.1416 13.6082 16.9713 13.5229C16.4952 13.2852 16.1342 13.4533 15.9969 13.5917C15.9797 13.6089 15.9643 13.6276 15.951 13.6477C15.4566 14.3894 14.8106 15.0992 14.6217 15.1372C14.4034 15.1032 13.3809 14.522 12.3646 13.6756C11.3271 12.8109 10.6746 11.9832 10.5785 11.4196C11.2443 10.7345 11.4841 10.3036 11.4841 9.81316C11.4841 9.30768 10.305 7.1972 10.0917 6.9839C9.87767 6.77023 9.39585 6.73689 8.65877 6.88351C8.5878 6.89785 8.52254 6.93263 8.47128 6.9839C8.38202 7.07316 6.29484 9.2012 7.2868 11.7806C8.37556 14.6113 11.1704 17.9016 14.7335 18.4361C15.1383 18.4967 15.5179 18.5268 15.8736 18.5268C17.9697 18.5268 19.2069 17.4721 19.5553 15.3799C19.5808 15.2268 19.5073 15.0741 19.3714 14.9988Z" fill="white"/>
</svg>
