<svg width="135" height="151" viewBox="0 0 135 151" fill="none" xmlns="http://www.w3.org/2000/svg">
<path d="M105.603 32.6421C112.171 32.6421 117.496 27.4038 117.496 20.9321C117.496 14.4604 105.603 0.0932617 105.603 0.0932617C105.603 0.0932617 93.7101 14.7153 93.7101 21.187C93.7101 27.6587 99.0321 32.6421 105.603 32.6421ZM67.5458 32.6421C74.1136 32.6421 79.4387 27.4038 79.4387 20.9321C79.4387 14.4604 67.5458 0.0932617 67.5458 0.0932617C67.5458 0.0932617 55.6529 14.7153 55.6529 21.187C55.6529 27.6587 60.975 32.6421 67.5458 32.6421ZM114.85 65.4546L115.117 46.9683C115.117 44.3796 112.987 42.2808 110.36 42.2808H100.846C98.2294 42.2808 96.0887 44.3901 96.0887 46.9683V65.7183H77.0601V46.9683C77.0601 44.3796 74.9301 42.2808 72.3029 42.2808H62.7887C60.1722 42.2808 58.0315 44.3901 58.0315 46.9683V65.7183H39.0029V46.9683C39.0029 44.3796 36.8729 42.2808 34.2458 42.2808H24.7315C22.1032 42.2808 19.9744 44.3901 19.9744 46.9683V65.7095C9.46406 65.7095 0.945801 74.103 0.945801 84.1958V104.323C3.86371 106.11 7.30551 107.642 10.4601 107.642C16.5968 107.642 23.8544 101.862 26.1289 99.6353C27.9872 97.8133 30.9872 97.8133 32.8454 99.6353C34.8702 102.134 42.3924 107.642 48.5172 107.642C54.6421 107.642 61.9116 101.862 64.1861 99.6353C66.0443 97.8133 69.0443 97.8133 70.9026 99.6353C72.9273 102.134 80.4496 107.642 86.5744 107.642C92.6992 107.642 99.9687 101.862 102.243 99.6353C104.101 97.8133 107.101 97.8133 108.96 99.6353C110.984 102.134 118.507 107.642 124.632 107.642C127.786 107.642 131.229 106.111 134.146 104.323V84.2046C134.146 74.0972 125.613 65.4546 114.85 65.4546ZM105.603 109.458C101.515 112.667 94.2958 117.269 86.5744 117.269C78.8529 117.269 71.634 112.669 67.5458 109.458C63.4576 112.667 56.2387 117.269 48.5172 117.269C40.7958 117.269 33.5768 112.669 29.4887 109.458C25.4005 112.667 18.1815 117.269 10.4601 117.269C7.10927 117.269 3.89226 116.355 0.945801 115.108V140.707C0.945801 145.904 5.20642 150.093 10.4601 150.093H124.632C129.885 150.093 134.146 145.895 134.146 140.718V115.119C131.199 116.366 127.982 117.28 124.632 117.28C116.901 117.017 109.706 112.681 105.603 109.458ZM29.4887 32.6421C36.0565 32.6421 41.3815 27.4038 41.3815 20.9321C41.3815 14.4604 29.4887 0.0932617 29.4887 0.0932617C29.4887 0.0932617 17.5958 14.7153 17.5958 21.187C17.5958 27.6587 22.9208 32.6421 29.4887 32.6421Z" fill="#FFF500"/>
</svg>
