<svg width="134" height="151" viewBox="0 0 134 151" fill="none" xmlns="http://www.w3.org/2000/svg">
<path d="M129.128 96.6676L96.9698 81.328L83.3715 74.841C89.3103 71.0995 94.1339 65.3251 97.2901 58.3699C99.9228 52.5714 101.285 46.277 101.284 39.9089C101.284 36.1571 100.689 32.5943 99.8591 29.1568C95.8137 12.4988 82.8048 0.227051 67.1879 0.227051C51.8667 0.227051 39.0549 12.0614 34.759 28.245C33.7672 31.9577 33.0854 35.8183 33.0854 39.9089C33.0854 47.0119 34.7446 53.6345 37.5641 59.3946C40.823 66.0766 45.6549 71.5862 51.5361 75.1285L38.5128 81.1925L5.31182 96.6553C2.42871 98.0065 0.533325 101.259 0.533325 104.892V141.372C0.533325 146.262 3.94008 150.225 8.14565 150.225H57.4564V122.293C57.4632 122.005 57.5476 121.724 57.7007 121.48L57.6802 121.468L65.7566 107.479L65.7771 107.492C66.0646 106.999 66.576 106.65 67.1879 106.65C67.7998 106.65 68.3112 106.997 68.5987 107.492L68.6069 107.485L68.6808 107.615C68.691 107.635 68.7054 107.652 68.7137 107.672L76.6833 121.474L76.673 121.48C76.8262 121.725 76.9106 122.007 76.9174 122.295V150.227H126.228C130.434 150.227 133.842 146.264 133.842 141.374V104.892C133.849 101.272 131.984 98.0497 129.128 96.6676ZM76.6792 87.3139L76.6997 87.3263L68.6212 101.315L68.6007 101.302C68.4605 101.554 68.2562 101.765 68.0084 101.912C67.7607 102.06 67.4783 102.139 67.1899 102.142C66.9016 102.139 66.6192 102.06 66.3715 101.912C66.1237 101.765 65.9194 101.554 65.7792 101.302L65.7689 101.309L65.6868 101.167C65.6806 101.152 65.6683 101.14 65.6621 101.126L57.6925 87.3201L57.7007 87.3139C57.5475 87.0691 57.4631 86.7875 57.4564 86.4987C57.4564 85.5849 58.1977 84.8436 59.1115 84.8436H75.2643C76.1781 84.8436 76.9194 85.5849 76.9194 86.4987C76.9161 86.7874 76.8329 87.0696 76.6792 87.3139Z" fill="#FFF500"/>
</svg>
