<svg width="129" height="151" viewBox="0 0 129 151" fill="none" xmlns="http://www.w3.org/2000/svg">
<path d="M112.302 47.1426H16.7784C12.5573 47.1467 8.51027 48.7828 5.5255 51.692C2.54073 54.6011 0.862033 58.5456 0.857819 62.6598V93.6943C0.860628 96.437 1.97976 99.0667 3.9696 101.006C5.95945 102.946 8.65746 104.036 11.4715 104.039V140.246C11.4743 142.989 12.5935 145.618 14.5833 147.558C16.5732 149.497 19.2712 150.588 22.0852 150.591H43.3126C46.1267 150.588 48.8247 149.497 50.8146 147.558C52.8044 145.618 53.9235 142.989 53.9263 140.246V78.177H43.3126V140.246H22.0852V93.6943H11.4715V62.6598C11.4715 61.288 12.0306 59.9724 13.0259 59.0023C14.0211 58.0323 15.3709 57.4874 16.7784 57.4874H112.302C113.709 57.4874 115.059 58.0323 116.054 59.0023C117.049 59.9724 117.609 61.288 117.609 62.6598V93.6943H106.995V140.246H85.7674V78.177H75.1537V140.246C75.1566 142.989 76.2757 145.618 78.2655 147.558C80.2554 149.497 82.9534 150.588 85.7674 150.591H106.995C109.809 150.588 112.507 149.497 114.497 147.558C116.487 145.618 117.606 142.989 117.609 140.246V104.039C120.423 104.036 123.121 102.946 125.11 101.006C127.1 99.0667 128.219 96.437 128.222 93.6943V62.6598C128.218 58.5456 126.539 54.6011 123.555 51.692C120.57 48.7828 116.523 47.1467 112.302 47.1426ZM32.6989 41.9701C28.5005 41.9701 24.3964 40.7567 20.9056 38.4833C17.4148 36.2099 14.694 32.9786 13.0874 29.1981C11.4807 25.4175 11.0603 21.2575 11.8794 17.2441C12.6985 13.2307 14.7202 9.54419 17.6889 6.65069C20.6576 3.75719 24.44 1.78669 28.5577 0.988375C32.6754 0.190061 36.9435 0.599785 40.8223 2.16574C44.7011 3.73169 48.0164 6.38353 50.3489 9.78593C52.6814 13.1883 53.9263 17.1885 53.9263 21.2805C53.9207 26.766 51.6825 32.0254 47.7028 35.9042C43.7231 39.7831 38.3271 41.9647 32.6989 41.9701ZM32.6989 10.9357C30.5997 10.9357 28.5477 11.5424 26.8023 12.6791C25.0569 13.8158 23.6965 15.4314 22.8931 17.3217C22.0898 19.212 21.8796 21.292 22.2892 23.2987C22.6987 25.3054 23.7096 27.1486 25.1939 28.5954C26.6783 30.0421 28.5694 31.0274 30.6283 31.4265C32.6872 31.8257 34.8212 31.6208 36.7606 30.8379C38.7 30.0549 40.3577 28.729 41.5239 27.0278C42.6902 25.3266 43.3126 23.3265 43.3126 21.2805C43.3098 18.5377 42.1907 15.908 40.2008 13.9686C38.211 12.0292 35.513 10.9384 32.6989 10.9357ZM96.3811 41.9701C92.1828 41.9701 88.0787 40.7567 84.5878 38.4833C81.097 36.2099 78.3762 32.9786 76.7696 29.1981C75.1629 25.4175 74.7426 21.2575 75.5616 17.2441C76.3807 13.2307 78.4024 9.54419 81.3711 6.65069C84.3398 3.75719 88.1222 1.78669 92.2399 0.988375C96.3576 0.190061 100.626 0.599785 104.505 2.16574C108.383 3.73169 111.699 6.38353 114.031 9.78593C116.364 13.1883 117.609 17.1885 117.609 21.2805C117.603 26.766 115.365 32.0254 111.385 35.9042C107.405 39.7831 102.009 41.9647 96.3811 41.9701ZM96.3811 10.9357C94.282 10.9357 92.2299 11.5424 90.4845 12.6791C88.7391 13.8158 87.3787 15.4314 86.5754 17.3217C85.772 19.212 85.5619 21.292 85.9714 23.2987C86.3809 25.3054 87.3918 27.1486 88.8761 28.5954C90.3605 30.0421 92.2517 31.0274 94.3105 31.4265C96.3694 31.8257 98.5034 31.6208 100.443 30.8379C102.382 30.0549 104.04 28.729 105.206 27.0278C106.372 25.3266 106.995 23.3265 106.995 21.2805C106.992 18.5377 105.873 15.908 103.883 13.9686C101.893 12.0292 99.1952 10.9384 96.3811 10.9357Z" fill="#FFF500"/>
</svg>
