<svg width="151" height="121" viewBox="0 0 151 121" fill="none" xmlns="http://www.w3.org/2000/svg">
<path d="M150.185 101.753C148.222 96.9827 142.744 94.6993 137.969 96.6899L132.785 98.856L123.703 75.1789C134.923 67.1928 138.907 51.7125 131.789 39.4173L111.488 4.17094C109.613 0.922659 105.839 -0.454409 102.324 0.981207L75.5583 12.075L48.5608 0.771837C45.0452 -0.662608 41.0609 0.713288 39.1859 3.96274L18.8775 39.1997C11.7877 51.495 15.7439 66.7879 26.9516 74.9613L17.8696 98.8258L12.697 96.6712C7.92285 94.6808 2.47368 96.964 0.481504 101.735C0.0713511 102.7 0.510801 103.783 1.47759 104.194L39.5398 119.971C40.2663 120.381 41.561 119.942 41.9702 118.976C43.9329 114.206 41.6773 108.702 36.9031 106.711L31.7188 104.575L40.946 80.312C42.0007 80.4291 43.0259 80.6047 44.021 80.6047C56.1498 80.6047 67.3107 73.0871 70.5989 60.6419L75.345 42.993L80.091 60.6419C83.1613 72.8763 94.5331 80.6047 106.669 80.6047C107.665 80.6047 108.69 80.4291 109.744 80.312L118.943 104.575L113.759 106.711C108.985 108.702 106.699 113.995 108.692 118.976C109.102 119.942 110.215 120.381 111.153 119.971L149.215 104.194C150.115 103.767 150.583 102.713 150.185 101.753ZM64.9904 38.1693L38.7171 27.2792L47.2718 12.4383L69.42 21.6117L64.9904 38.1693ZM85.6621 38.1693L81.2395 21.6023L103.385 12.4406L111.94 27.2815L85.6621 38.1693Z" fill="#FFF500"/>
</svg>
