<svg width="156" height="151" viewBox="0 0 156 151" fill="none" xmlns="http://www.w3.org/2000/svg">
<path d="M98.0253 115.719C102.043 111.765 99.875 102.682 93.3118 92.1898C95.697 91.8173 97.927 91.2484 99.6138 90.3768C105.683 87.2449 109.781 81.5372 112.883 75.6329C116.217 69.2992 118.455 62.3372 122.806 56.5699C123.541 55.5949 124.276 54.7208 125.008 53.8984C134.396 55.0234 141.891 57.0406 141.891 57.0406L144.755 49.7656C141.14 48.4688 137.434 47.4426 133.667 46.6958C135.974 45.3846 137.48 44.976 137.48 44.976L134.766 37.6415C130.415 39.4803 126.883 42.1932 123.927 45.4415C112.875 44.8234 101.745 47.0242 92.9651 53.8311C86.3631 58.9518 81.903 66.051 77.7069 73.1527C73.989 69.5053 70.0297 66.1123 65.8558 62.9967C66.6474 61.6958 67.496 60.5268 68.4092 59.6242C73.9273 54.1932 81.2071 50.7199 85.9828 44.5053C96.0204 31.4553 88.6784 10.9984 80.4207 0.405273C78.9409 1.83027 76.4936 3.907 74.6516 5.54665C83.4294 14.5337 89.5684 30.2682 82.6895 42.0251C78.8452 48.5967 71.7412 52.7191 66.7742 58.3648C65.9153 59.3449 65.1469 60.5863 64.451 61.957C51.4616 52.6441 39.5407 48.8967 34.8168 53.5467C34.3477 54.0264 33.9613 54.5804 33.6733 55.1863L33.6552 55.1682L33.5285 55.538C33.3525 55.9389 33.1921 56.3553 33.0835 56.8104L0.577637 150.405L95.4228 117.255L95.3969 117.229C96.4162 116.901 97.3139 116.417 98.0253 115.719ZM19.4447 138.333L11.5285 134.645L16.8707 119.257L41.3723 130.667L19.4447 138.333ZM63.2972 123.004L22.218 103.869L27.5602 88.4837L58.2577 103.887C39.9339 91.9648 32.9024 73.0932 32.9024 73.0932L34.7288 67.8354C37.9755 76.0467 45.1183 86.2725 54.9334 95.9242C64.8313 105.664 75.3217 112.719 83.7062 115.872L63.2972 123.004ZM79.0754 74.5389C83.3647 68.3915 87.7859 62.1872 93.9327 57.7725C99.7845 53.5673 109.284 52.7992 118.289 53.3036C115.247 58.6156 112.999 64.5096 110.981 70.1708C108.542 77.0242 105.272 84.1311 99.0368 88.3337C97.3553 89.4665 94.9985 90.2941 92.4814 90.907C89.0225 85.6079 84.4849 80.0061 79.0754 74.5389Z" fill="#FFF500"/>
<path d="M54.9909 49.5434C57.5831 49.5434 49.8117 41.7848 51.1104 34.9805C56.0878 34.5977 67.4655 36.84 60.8427 27.7469C68.3347 29.0658 72.2152 23.4745 65.1424 18.1753C67.4965 18.3408 71.1546 13.9029 68.5288 13.3417C60.1158 11.5598 56.8225 16.109 62.1621 22.6702C56.5483 21.6253 51.9719 24.2348 56.1887 30.0952C39.9785 28.0753 49.2012 49.5434 54.9909 49.5434ZM110.643 42.6486C113.072 41.5521 108.951 34.3081 107.611 32.4564C117.863 31.3598 117.475 28.3055 111.046 21.7624C128.524 22.3495 111.587 12.4184 113.962 8.4874C116.019 5.07878 122.328 8.65292 121.744 6.75464C119.772 0.405506 101.073 4.69861 112.906 16.5538C102.579 16.7555 101.588 20.1305 109.285 27.1262C95.8787 27.2736 106.817 44.371 110.643 42.6486ZM155.015 68.2288C150.923 69.3745 150.291 68.9452 150.837 73.0184C141.384 68.6684 131.383 62.6193 137.452 78.646C126.716 72.2555 127.251 77.8521 125.244 87.0615C122.631 85.0262 118.919 79.6624 118.919 79.6624L114.986 83.0012C114.986 83.0012 122.191 93.1598 125.748 92.5831C128.876 92.0788 130.578 86.1693 130.752 80.9607C140.712 85.1633 145.48 85.7245 140.924 73.4348C148.887 77.9064 158.65 81.8503 155.015 68.2288ZM11.053 22.2253L18.3691 29.5417L11.053 36.8555L3.73438 29.5417L11.053 22.2253ZM28.5801 52.6417L21.2588 59.9555L13.9401 52.6365L21.2614 45.3202L28.5801 52.6417ZM39.9526 10.7503L47.2687 18.0641L39.95 25.3831L32.6339 18.0641L39.9526 10.7503ZM119.609 112.864L112.288 105.548L119.604 98.2288L126.925 105.545L119.609 112.864ZM103.296 137.955L95.9796 130.642L103.296 123.325L110.614 130.642L103.296 137.955ZM135.395 143.733L128.074 136.417L135.388 129.098L142.709 136.414L135.395 143.733ZM142.711 110.412L135.395 103.096L142.711 95.7822L150.027 103.096L142.711 110.412ZM130.498 18.509L137.814 25.8227L130.496 33.1391L123.179 25.8227L130.498 18.509Z" fill="#FFF500"/>
</svg>
